<?xml version="1.0" encoding="UTF-8"?>
<svg clip-rule="evenodd" fill-rule="evenodd" image-rendering="optimizeQuality" shape-rendering="geometricPrecision" text-rendering="geometricPrecision" version="1.1" viewBox="0 0 436 511.99" xmlns="http://www.w3.org/2000/svg">
 <path d="M341.19 256.84c.47 11.88.07 70.89-1.18 82.7l55.62 28.23c5.91 2.98 9.75 8.42 10.93 14.46l23.7 104.67c2.5 11.07-4.46 22.07-15.54 24.56-11.08 2.5-22.08-4.47-24.56-15.54l-21.71-95.82-36.83-18.69c-18.56 61.62-61.57 104.8-111.68 104.8-50.39 0-93.62-43.69-111.98-105.89l-40.25 18.27-18.45 96.68c-2.14 11.17-12.92 18.49-24.09 16.35-11.16-2.14-18.48-12.92-16.34-24.08L29.2 380.78c1.13-6.51 5.36-12.36 11.84-15.28l58.78-26.69c-1.18-11.63-1.57-70.39-1.11-82.07l-62.07-21.42c-6.5-2.24-11.16-7.43-12.99-13.56l-.06.02L.86 146.45c-3.24-10.89 2.96-22.36 13.86-25.61 10.89-3.25 22.36 2.96 25.61 13.86l19.69 65.25 49.69 17.15 220.76.01 45.51-15.71 19.69-65.25c3.25-10.89 14.72-17.1 25.61-13.85 10.9 3.25 17.1 14.71 13.86 25.61l-22.73 75.33-.06-.02c-1.83 6.13-6.49 11.31-12.99 13.55l-58.17 20.07zM218.65 95.26c7.73 0 15.25 1.43 22.47 4.13 2.64-5.87 5.05-11.33 7.24-16.33C271.4 30.67 274.39 23.84 353.76.57c7.42-2.18 15.21 2.08 17.39 9.5 2.18 7.42-2.07 15.21-9.49 17.39-66.82 19.6-69.21 25.05-87.61 66.9-2.56 5.81-5.39 12.26-8.77 19.66 20.93 18.05 37.33 47.85 45.78 83.91H126.23c8.45-36.05 24.86-65.86 45.79-83.91-3.38-7.39-6.22-13.84-8.78-19.66-18.39-41.85-20.79-47.3-87.61-66.9-7.42-2.18-11.67-9.97-9.49-17.39C68.32 2.65 76.11-1.6 83.53.58c79.37 23.27 82.37 30.09 105.39 82.48 2.21 5.01 4.61 10.47 7.25 16.34 7.22-2.7 14.74-4.14 22.47-4.14h.01zm34.8 41.18c10.33 0 18.71 8.38 18.71 18.71 0 10.32-8.38 18.7-18.71 18.7-10.32 0-18.7-8.38-18.7-18.7 0-10.33 8.38-18.71 18.7-18.71zm-69.61 0c10.33 0 18.71 8.38 18.71 18.71 0 10.32-8.38 18.7-18.71 18.7s-18.7-8.38-18.7-18.7c0-10.33 8.37-18.71 18.7-18.71z" fill="#35b9ab" stroke="#35b9ab"/>
</svg>
