<?xml version="1.0" encoding="UTF-8"?>
<svg fill="currentColor" version="1.1" viewBox="0 0 24 24" xmlns="http://www.w3.org/2000/svg">
 <path d="m11.832 1.0137a1.0001 1.0001 0 00-.31836.11133l-9 5a1.0001 1.0001 0 00-.066406.052734 1 1 0 00-.12891.10547 1.0001 1.0001 0 00-.13281.16016 1 1 0 00-.060547.070312 1 1 0 00-.023438.070312 1.0001 1.0001 0 00-.0625.19531 1 1 0 00-.029297.16211 1.0001 1.0001 0 00-.0097656.058594v11a1.0001 1.0001 0 00.51367.875l9 5a1.0001 1.0001 0 00.089844.03125 1 1 0 00.16016.056641 1.0001 1.0001 0 00.15039.023437 1 1 0 00.085938.013672 1 1 0 00.085938-.013672 1.0001 1.0001 0 00.15039-.023437 1 1 0 00.16016-.056641 1.0001 1.0001 0 00.089844-.03125l9-5a1.0001 1.0001 0 00.51367-.875v-10.963a1 1 0 000-.037109 1.0001 1.0001 0 00-.001953-.054688 1 1 0 00-.001953-.041016 1.0001 1.0001 0 00-.001953-.019531 1 1 0 00-.003907-.021484 1.0001 1.0001 0 00-.015625-.087891 1.0001 1.0001 0 00-.003906-.019531 1 1 0 00-.005859-.015625 1.0001 1.0001 0 00-.019532-.064453 1 1 0 00-.019531-.052734 1.0001 1.0001 0 00-.017578-.039062 1.0001 1.0001 0 00-.029297-.060547 1.0001 1.0001 0 00-.003906-.0097656 1 1 0 00-.003906-.0058594 1.0001 1.0001 0 00-.24024-.28516 1 1 0 00-.019531-.013672 1.0001 1.0001 0 00-.125-.083984l-9-5a1.0001 1.0001 0 00-.6543-.11133zm.16797 2.1309 6.9395 3.8555-6.9395 3.8555v-7.7109zm-8 5.5566 7 3.8887v8.7109l-7-3.8887v-8.7109z" fill="#000" stroke-linecap="round" stroke-linejoin="round"/>
</svg>
