<?xml version="1.0" encoding="UTF-8"?>
<svg enable-background="new 0 0 91.06 122.88" version="1.1" viewBox="0 0 91.06 122.88" xml:space="preserve" xmlns="http://www.w3.org/2000/svg"><g fill="#009b77" stroke="#009b77"><path d="m58.68 84.96h-31.31v-3.12c0-5.32 0.59-9.65 1.8-12.97 1.21-3.35 3.01-6.36 5.4-9.11 2.39-2.76 7.76-7.6 16.12-14.52 4.45-3.63 6.67-6.95 6.67-9.96 0-3.04-0.9-5.37-2.67-7.06-1.8-1.66-4.5-2.5-8.13-2.5-3.91 0-7.12 1.29-9.68 3.88-2.56 2.56-4.19 7.09-4.9 13.5l-31.98-3.97c1.1-11.76 5.37-21.21 12.8-28.39 7.45-7.17 18.88-10.74 34.26-10.74 11.98 0 21.63 2.5 29 7.48 9.99 6.78 15 15.78 15 27.04 0 4.67-1.29 9.2-3.88 13.53-2.56 4.33-7.85 9.65-15.81 15.89-5.54 4.42-9.06 7.93-10.52 10.61-1.43 2.64-2.17 6.13-2.17 10.41zm-32.4 8.33h33.56v29.6h-33.56v-29.6z" fill="#009b77" stroke="#009b77"/></g></svg>

