<?xml version="1.0" encoding="UTF-8"?>
<svg fill="currentColor" version="1.1" viewBox="0 0 24 24" xmlns="http://www.w3.org/2000/svg">
 <g fill="#000" stroke-linecap="round" stroke-linejoin="round">
  <path d="m11.514 1.125-9 5a1.0001 1.0001 0 00-.51367.875v11a1.0001 1.0001 0 00.51367.875l9 5a1.0001 1.0001 0 00.97266 0l9-5a1.0001 1.0001 0 00.51367-.875v-11a1.0001 1.0001 0 00-.51367-.875l-9-5a1.0001 1.0001 0 00-.97266 0zm.48633 2.0195 8 4.4453v9.8223l-8 4.4434-8-4.4434v-9.8242z"/>
  <path d="m3.4863 6.125a1 1 0 00-1.3613.38867 1 1 0 00.38867 1.3613l9 5a1.0001 1.0001 0 00.97266 0l9-5a1 1 0 00.38867-1.3613 1 1 0 00-1.3613-.38867l-8.5137 4.7305z"/>
  <path d="m12 11a1 1 0 00-1 1v11a1 1 0 001 1 1 1 0 001-1v-11a1 1 0 00-1-1z"/>
 </g>
</svg>
