<svg width="{% if include.size != 0 %}{{ include.size }}{% else %}24{% endif %}" height="{% if include.size != 0 %}{{ include.size }}{% else %}24{% endif %}" version="1.1" viewBox="0 0 24 24" xmlns="http://www.w3.org/2000/svg" fill="currentColor"><title>Matrix</title><path d="m3 3c-0.5 0-1 0.5-1 1v16c0 0.5 0.5 1 1 1h3v-2h-2v-14h2v-2h-3zm15 0v2h2v14h-2v2h3c0.5 0 1-0.5 1-1v-16c0-0.5-0.5-1-1-1h-3zm-8 6c-0.75 0-1.5 0.25-2 0.75v-0.5h-2v6.75h2v-3.5c0-0.75 0.75-1.5 1.5-1.5 0.75 0 1.5 0.75 1.5 1.5v2.5h2v-2.5c0-0.75 0.75-1.5 1.5-1.5s1.5 0.75 1.5 1.5v3.5h2v-4c0-1.5-1.25-3-3-3-1 0-2 0.5-2.5 1.25-0.5-0.75-1.5-1.25-2.5-1.25z"/></svg>