<svg id="Layer_1" data-name="Layer 1" xmlns="http://www.w3.org/2000/svg" viewBox="0 0 122.88 100.15"><title>repairing</title><path d="M22.7,37.17C17,38.34,11.16,38.47,5.48,32.65,1.67,28.75-.23,22.93,0,16.84c14.55,16.9,32.27-4,10.79-14.85C21.19-2.93,31,1.69,36.18,11.25c2.47,4.52,3.93,6.89,5.81,8.5a9.47,9.47,0,0,0,1.07.82,9.67,9.67,0,0,1,4.48-5.33,8.66,8.66,0,0,1,3.89-.92c3.79,0,8.52,2.26,9.32,6.13h0a2.32,2.32,0,0,1,.52-.07H64a2.14,2.14,0,0,1,.45.05,6.69,6.69,0,0,1,6,5.49,2,2,0,0,1,.85-.19h2.75a2.14,2.14,0,0,1,.45.05c4,.61,5.55,3,6.12,6.12a3,3,0,0,1,.31,0H83.7a2.12,2.12,0,0,1,.44.05c4.54.71,6.32,3.68,7,7.27,8.3-1.28,17.41-6.3,26.25,2.77,3.8,3.9,5.71,9.72,5.46,15.81-14.55-16.9-32.27,4-10.79,14.85-8.93,4.23-17.43,1.4-22.94-5.56a35.54,35.54,0,0,1-2.79,5.86c-.46.75-.92,1.51-1.53,2.56l0,.09a22.24,22.24,0,0,1-1.55,2.35h1.91a3,3,0,0,1,3,3V97.17a3,3,0,0,1-3,3H42a3,3,0,0,1-3-3V80.9a3,3,0,0,1,3-3h1a21,21,0,0,1-1.07-4.53L27,49,27,48.94a27.71,27.71,0,0,1-3-5.07,14.33,14.33,0,0,1-1.29-4.82,11.78,11.78,0,0,1,0-1.88Zm19.45,6.92a2.11,2.11,0,0,1-.31-.21c-1.27-1-2.65-2.14-3.86-3.12L32.79,36.5a7.27,7.27,0,0,0-3.08-1.56A3.12,3.12,0,0,0,28,35,1.8,1.8,0,0,0,27,36a5.91,5.91,0,0,0-.35,2.81,10.65,10.65,0,0,0,1,3.47,22.16,22.16,0,0,0,2.53,4.28l.12.19,15.17,24.8a2.11,2.11,0,0,1,.34.91h0A13.15,13.15,0,0,0,47.43,78a2.49,2.49,0,0,0,2.22,1.26H73.52A7.17,7.17,0,0,0,77.59,78a13.15,13.15,0,0,0,3.72-4.36l.06-.11c.44-.74,1-1.69,1.57-2.61a37.79,37.79,0,0,0,4.78-15.52l-.16-6.81a2.81,2.81,0,0,1,0-.29c0-.09,0-.74,0-1.6.06-4.5.13-10.07-4-10.77H80.91c0,1.27-.1,2.55-.17,3.81s-.14,2.19-.14,3.22a2,2,0,0,1-4,0c0-1,.08-2.23.16-3.47.27-4.23.58-9.1-2.82-9.71H71.31a2,2,0,0,1-.43,0c0,1.53-.08,3.13-.18,4.65-.07,1.12-.13,2.2-.13,3.22a2,2,0,1,1-4,0c0-1,.08-2.22.16-3.46.26-4.24.57-9.1-2.82-9.71H61.27a2.11,2.11,0,0,1-.52-.07v7.74a2,2,0,0,1-4,0V22.27c0-2.76-2.75-4-5.32-4a4.61,4.61,0,0,0-2.07.5c-1.8.91-3.2,3.49-3.2,7.06V47.79a2,2,0,0,1-4,0v-3.7Zm0-7.12-1.88-.77a24.07,24.07,0,0,0-2.63-.89l2.87,2.34L42.15,39V37Z"/></svg>